<svg data-name="Layer 1" xmlns="http://www.w3.org/2000/svg" viewBox="0 0 148.13 100"><path d="M34.7 8.06a19.41 19.41 0 0 1 16.51 21.72A19.42 19.42 0 0 1 29.1 46.07a19.8 19.8 0 0 1-10.8-5.14c7.87 4.38 17.63 3.15 23.33-3.48 6.6-7.66 5.26-19.62-3-26.71a20.79 20.79 0 0 0-4-2.68M46.06 78.2a2.64 2.64 0 0 1-.2-.34c-1.6-3.86-3.24-7.7-4.8-11.57-1.18-2.92-2.25-5.88-3.39-8.82a.9.9 0 0 0-.5-.54h-4.39c-.67 9.42-2.19 18.67-3.09 28h2.25q1.26-10.77 2.51-21.48h.12l8.94 21.54h1.55a.68.68 0 0 0 .77-.53q3.42-8.46 6.89-16.87c.52-1.28 1.06-2.56 1.59-3.84h.17q1 10.56 1.93 21.12h5.13c-.93-9.35-1.87-18.65-2.81-28h-3.5a.74.74 0 0 0-.83.56q-2.31 5.82-4.66 11.63c-1.22 3-2.45 6.06-3.69 9.13m41 6.75h2.47a.72.72 0 0 0 .81-.55c1.11-2.65 2.27-5.27 3.38-7.91a.75.75 0 0 1 .82-.55h8.5a.65.65 0 0 1 .73.47c.92 2.32 1.88 4.62 2.8 6.95.62 1.59.59 1.6 2.31 1.6h4.12c-.13-.32-.21-.53-.3-.74-1.75-4-3.53-8-5.25-12-2.1-4.89-4.16-9.79-6.24-14.69-.15-.35-.17-.8-.75-.69s-1.17-.26-1.54.62c-3.27 7.55-6.56 15.13-9.83 22.69L87 84.94m8.1-12l3.55-8.67c1.24 3 2.42 5.78 3.64 8.67h-7.18zm-13.82-3.65l-8.67.3V59.31l10.7.25c-.25-.62-.56-1.28-.77-2a.87.87 0 0 0-1-.71H67.49v28H83.6a.89.89 0 0 0 .68-.27c.35-.84.62-1.73 1-2.67-4.28.68-8.49.36-12.66.44V72.07h8.7v-2.78m36.26 15.65H134a.57.57 0 0 0 .45-.23c.33-.86.62-1.74 1-2.71-4.28.67-8.48.35-12.73.44v-25.5h-5.19v28M66.26 6h3.18c4.5.22 8 2.58 9 6.32 1.42 5.25-.23 12.58-8.5 13.48-1.46.16-1.91.93-2.44 2a26.44 26.44 0 0 0 13-1.9c8.26-3.81 8.41-13.81 4.16-18.71a15.69 15.69 0 0 0-11.45-5.31c-5-.26-10-.13-14.93-.16a3.49 3.49 0 0 0-.66.12v47.9h8.64V6zm39.37 43.72h8.9V6h16.69V1.77H90.43L89.39 6h16.24v43.71zm42.5-47.92h-8.82v47.92h8.82V1.79zM30.57 48.59A22.33 22.33 0 0 1 8 26.5 22.33 22.33 0 0 1 30.57 4.41a22.65 22.65 0 0 1 18.36 9.27A25.94 25.94 0 0 0 25.83 0C11.57 0 0 11.09 0 24.77s11.57 24.78 25.83 24.78a26.88 26.88 0 0 0 7.87-1.17 23.39 23.39 0 0 1-3.14.22M19.52 99.87h.94v-2.58h1.08a2.52 2.52 0 0 0 .67-.09 1.81 1.81 0 0 0 .59-.2 1.43 1.43 0 0 0 .42-.47 1.33 1.33 0 0 0 .16-.66 1.38 1.38 0 0 0-.16-.68 1.52 1.52 0 0 0-.45-.5 2.06 2.06 0 0 0-.66-.31 3 3 0 0 0-.82-.11h-1.77v5.57zm.94-5.16h.66a1.34 1.34 0 0 1 .49.09 1.18 1.18 0 0 1 .39.2 1.15 1.15 0 0 1 .27.39 1.28 1.28 0 0 1 .1.51 1.34 1.34 0 0 1-.07.45 1 1 0 0 1-.22.37 1 1 0 0 1-.38.25 1.43 1.43 0 0 1-.53.09 1.73 1.73 0 0 1-.37 0l-.35-.06v-2.29zm4.15-.41v5.57h3.87v-.36h-2.95V97h2v-.35h-2v-2h2.93v-.35H24.6zm5.32 5.57h.94v-2.62h.66l1.93 2.62h1.08l-2-2.7a2.33 2.33 0 0 0 .51-.17 1.79 1.79 0 0 0 .43-.32 1.33 1.33 0 0 0 .28-.41 1.21 1.21 0 0 0 .1-.49 1.32 1.32 0 0 0-.13-.58 1.27 1.27 0 0 0-.38-.46 1.85 1.85 0 0 0-.63-.3 3.2 3.2 0 0 0-.88-.11h-1.92v5.57zm.94-5.22h.82a1.29 1.29 0 0 1 .47.08 1.11 1.11 0 0 1 .37.23 1.05 1.05 0 0 1 .24.36 1.17 1.17 0 0 1 .09.46 1.07 1.07 0 0 1-.42.87 1.45 1.45 0 0 1-.46.24 1.93 1.93 0 0 1-.58.08h-.55v-2.32zm4.77-.35v5.57h.94V97h2v-.35h-2v-2h2.71v-.35h-3.66zm4.79 0v5.57h3.87v-.36h-2.95V97h2v-.35h-2v-2h2.93v-.35h-3.86zm6.34 1.7a2.38 2.38 0 0 1 .49-.8 2.14 2.14 0 0 1 .73-.5 2.31 2.31 0 0 1 .9-.18 1.63 1.63 0 0 1 1 .32 2.8 2.8 0 0 1 .78 1l.4-.27a3.5 3.5 0 0 0-.41-.54 2.76 2.76 0 0 0-.55-.46 2.93 2.93 0 0 0-.68-.32 2.67 2.67 0 0 0-.82-.12 3.46 3.46 0 0 0-.88.11 3.19 3.19 0 0 0-.76.3 2.91 2.91 0 0 0-.62.47 2.84 2.84 0 0 0-.47.6 2.9 2.9 0 0 0-.29.7 2.9 2.9 0 0 0 .28 2.21 2.8 2.8 0 0 0 1.07 1 3.2 3.2 0 0 0 .75.3 3.45 3.45 0 0 0 .87.11 2.92 2.92 0 0 0 .87-.12 2.82 2.82 0 0 0 .7-.32 2.64 2.64 0 0 0 .54-.46 3.67 3.67 0 0 0 .41-.54l-.39-.25a2.71 2.71 0 0 1-.3.47 2.52 2.52 0 0 1-.42.41 2.21 2.21 0 0 1-.51.3 1.44 1.44 0 0 1-.56.11 2.43 2.43 0 0 1-.9-.1 2.07 2.07 0 0 1-.73-.49 2.3 2.3 0 0 1-.48-.79 3 3 0 0 1-.18-1.05 2.91 2.91 0 0 1 .16-1.1zm5.33-1.7v.36h2v5.21h.93v-5.21h2v-.36h-5zm6.23 5.57h.94V94.3h-.94v5.57zm6.39 0a3.14 3.14 0 0 0 .74-.3 3 3 0 0 0 .62-.46 2.89 2.89 0 0 0 .48-.6 2.93 2.93 0 0 0 .3-.71A2.82 2.82 0 0 0 67 97a2.7 2.7 0 0 0-.11-.77 2.83 2.83 0 0 0-.3-.69 2.8 2.8 0 0 0-.51-.54 3.08 3.08 0 0 0-.62-.45 3.12 3.12 0 0 0-.74-.29 3.4 3.4 0 0 0-1.65 0 3.12 3.12 0 0 0-.74.29 3.08 3.08 0 0 0-.62.45 2.8 2.8 0 0 0-.48.58 2.83 2.83 0 0 0-.3.69 2.71 2.71 0 0 0-.11.77 2.83 2.83 0 0 0 .11.78 2.94 2.94 0 0 0 .3.7 2.89 2.89 0 0 0 .48.6 3 3 0 0 0 .62.46 3.14 3.14 0 0 0 .74.3 3.29 3.29 0 0 0 1.65.01zM63 99.52a1.77 1.77 0 0 1-.58-.52 2.59 2.59 0 0 1-.42-.88 4.29 4.29 0 0 1-.08-1.12 4.11 4.11 0 0 1 .08-1 2.48 2.48 0 0 1 .37-.82 1.73 1.73 0 0 1 .63-.54 1.83 1.83 0 0 1 .86-.19 1.8 1.8 0 0 1 .84.19 1.75 1.75 0 0 1 .62.54 2.54 2.54 0 0 1 .38.82 4 4 0 0 1 .13 1 4.17 4.17 0 0 1-.13 1.07 2.65 2.65 0 0 1-.38.85 1.79 1.79 0 0 1-.62.56 1.74 1.74 0 0 1-.84.2 1.78 1.78 0 0 1-.86-.16zm5.49.35h.42v-4.4l4 4.53h.22v-5.7h-.39v4.07l-3.69-4.07h-.52v5.57zm9.23 0h2.6a2.6 2.6 0 0 0 .8-.12 1.89 1.89 0 0 0 .61-.32 1.42 1.42 0 0 0 .43-.43 1.3 1.3 0 0 0 .14-.59 1.36 1.36 0 0 0-.09-.51 1.24 1.24 0 0 0-.26-.41 1.39 1.39 0 0 0-.41-.29A2 2 0 0 0 81 97a3.37 3.37 0 0 0 .49-.28 1.39 1.39 0 0 0 .31-.29 1 1 0 0 0 .2-.36 1.57 1.57 0 0 0 0-.41 1.07 1.07 0 0 0-.15-.56 1.35 1.35 0 0 0-.41-.43 2.1 2.1 0 0 0-.64-.28 3.14 3.14 0 0 0-.8-.09h-2.24v5.57zm.94-5.2h.77a3 3 0 0 1 .72.08 1.45 1.45 0 0 1 .5.22.87.87 0 0 1 .29.34 1.06 1.06 0 0 1 .09.44 1.11 1.11 0 0 1-.08.42.94.94 0 0 1-.23.33 1 1 0 0 1-.37.22 1.46 1.46 0 0 1-.5.08h-1.16v-2.13zm0 2.48h1a2.56 2.56 0 0 1 .76.1 1.38 1.38 0 0 1 .5.26 1 1 0 0 1 .28.39 1.4 1.4 0 0 1 .08.49 1 1 0 0 1-.09.43.88.88 0 0 1-.29.34 1.5 1.5 0 0 1-.5.22 2.86 2.86 0 0 1-.71.08h-1v-2.31zm4.22-2.85l2.23 3.25v2.32h.94v-2.41l2.16-3.16h-.48l-1.93 2.82-1.93-2.82h-1zm9.24 5.57h.42v-4.4l4 4.53h.22v-5.7h-.39v4.07l-3.69-4.07h-.52v5.57zm6.32-2a2.17 2.17 0 0 0 .15.82 1.9 1.9 0 0 0 .45.67 2.13 2.13 0 0 0 .74.45 2.9 2.9 0 0 0 1 .17 3.3 3.3 0 0 0 1.11-.17 2.09 2.09 0 0 0 .76-.45 1.75 1.75 0 0 0 .43-.66 2.34 2.34 0 0 0 .14-.81V94.3h-.41v3.61a1.87 1.87 0 0 1-.12.67 1.65 1.65 0 0 1-.34.55 1.61 1.61 0 0 1-.54.37 2 2 0 0 1-1.43 0 1.62 1.62 0 0 1-.9-.92 1.83 1.83 0 0 1-.12-.67V94.3h-.88v3.59zm6-3.59v.36h2v5.21h.93v-5.19h2v-.36h-5zm6.24 5.57h.94v-2.6h.66l1.93 2.62h1.08l-2-2.7a2.33 2.33 0 0 0 .56-.21 1.79 1.79 0 0 0 .43-.32 1.33 1.33 0 0 0 .28-.41 1.21 1.21 0 0 0 .1-.49 1.32 1.32 0 0 0-.13-.58 1.27 1.27 0 0 0-.38-.46 1.85 1.85 0 0 0-.63-.3 3.2 3.2 0 0 0-.88-.11h-1.93v5.57zm.94-5.22h.82a1.29 1.29 0 0 1 .47.08 1.11 1.11 0 0 1 .37.23 1.05 1.05 0 0 1 .24.36 1.17 1.17 0 0 1 .09.46 1.07 1.07 0 0 1-.42.87 1.45 1.45 0 0 1-.46.24 1.93 1.93 0 0 1-.58.08h-.54v-2.3zm4.77 5.22h.94V94.3h-.93v5.57zm2.2-5.57v.36h2v5.21h.93v-5.19h2v-.36h-5zm6.23 5.57h.94V94.3h-.94v5.57zm6.39 0a3.14 3.14 0 0 0 .74-.3 3 3 0 0 0 .62-.46 2.89 2.89 0 0 0 .48-.6 2.94 2.94 0 0 0 .3-.71 2.82 2.82 0 0 0 .11-.78 2.7 2.7 0 0 0-.11-.77 2.83 2.83 0 0 0-.3-.69 2.8 2.8 0 0 0-.48-.58 3.08 3.08 0 0 0-.62-.45 3.12 3.12 0 0 0-.74-.29 3.4 3.4 0 0 0-1.65 0 3.12 3.12 0 0 0-.74.29 3.08 3.08 0 0 0-.62.45 2.8 2.8 0 0 0-.48.58 2.83 2.83 0 0 0-.3.69 2.71 2.71 0 0 0-.11.77 2.83 2.83 0 0 0 .11.78 2.94 2.94 0 0 0 .3.7 2.89 2.89 0 0 0 .48.6 3 3 0 0 0 .62.46 3.14 3.14 0 0 0 .74.3 3.29 3.29 0 0 0 1.66.05zm-1.68-.37a1.77 1.77 0 0 1-.62-.56 2.59 2.59 0 0 1-.37-.85 4.29 4.29 0 0 1-.13-1.07 4.11 4.11 0 0 1 .13-1 2.48 2.48 0 0 1 .37-.82 1.73 1.73 0 0 1 .62-.54 1.83 1.83 0 0 1 .86-.19 1.8 1.8 0 0 1 .84.19 1.75 1.75 0 0 1 .62.54 2.54 2.54 0 0 1 .38.82 4 4 0 0 1 .13 1 4.17 4.17 0 0 1-.13 1.07 2.65 2.65 0 0 1-.38.85 1.79 1.79 0 0 1-.62.56 1.74 1.74 0 0 1-.84.2 1.78 1.78 0 0 1-.86-.16zm5.47.39h.42v-4.4l4 4.53h.22v-5.7h-.41v4.07l-3.65-4.07H135v5.57z" fill="#173d34"/></svg>